<?xml version="1.0" encoding="utf-8"?>
<!-- Generator: Adobe Illustrator 21.1.0, SVG Export Plug-In . SVG Version: 6.00 Build 0)  -->
<svg version="1.1" id="Layer_1" xmlns="http://www.w3.org/2000/svg" xmlns:xlink="http://www.w3.org/1999/xlink" x="0px" y="0px"
	 viewBox="0 0 100 100" style="enable-background:new 0 0 100 100;" xml:space="preserve">
<style type="text/css">
	.st0{fill:#FFFFFF;}
</style>
<g id="XMLID_1587_">
	<g id="XMLID_1596_">
		<path id="XMLID_1790_" class="st0" d="M75.5,89.3H24.5c-1.6,0-2.8-1-2.8-2.2V83c0-1.2,1.3-2.2,2.8-2.2h51.1c1.6,0,2.8,1,2.8,2.2
			v4.1C78.3,88.3,77.1,89.3,75.5,89.3z"/>
	</g>
	<g id="XMLID_1595_">
		<path id="XMLID_1630_" class="st0" d="M69.4,77.8H30.2c-1.7,0-3-1.4-3-3V59.2c0-11.6,10.1-21,22.6-21h0c12.5,0,22.6,9.4,22.6,21
			v15.6C72.4,76.4,71.1,77.8,69.4,77.8z"/>
	</g>
	<g id="XMLID_1594_">
		<path id="XMLID_1788_" class="st0" d="M50,29.8c-1,0-1.9-0.9-1.9-1.9V12.6c0-1,0.9-1.9,1.9-1.9c1,0,1.9,0.9,1.9,1.9v15.3
			C51.9,29,51,29.8,50,29.8z"/>
	</g>
	<g id="XMLID_1593_">
		<path id="XMLID_1787_" class="st0" d="M34.2,34c-0.7,0-1.3-0.3-1.6-1l-7.7-13.3c-0.5-0.9-0.2-2.1,0.7-2.6c0.9-0.5,2.1-0.2,2.6,0.7
			l7.7,13.3c0.5,0.9,0.2,2.1-0.7,2.6C34.8,33.9,34.5,34,34.2,34z"/>
	</g>
	<g id="XMLID_1592_">
		<path id="XMLID_1785_" class="st0" d="M22.5,45.5c-0.3,0-0.6-0.1-0.9-0.3L8.3,37.6C7.4,37,7.1,35.9,7.6,35
			c0.5-0.9,1.7-1.2,2.6-0.7l13.3,7.7c0.9,0.5,1.2,1.7,0.7,2.6C23.8,45.1,23.2,45.5,22.5,45.5z"/>
	</g>
	<g id="XMLID_1591_">
		<path id="XMLID_1781_" class="st0" d="M18.2,61.2H2.9c-1,0-1.9-0.9-1.9-1.9c0-1,0.9-1.9,1.9-1.9h15.3c1,0,1.9,0.9,1.9,1.9
			C20.1,60.4,19.3,61.2,18.2,61.2z"/>
	</g>
	<g id="XMLID_1590_">
		<path id="XMLID_1780_" class="st0" d="M65.8,34c-0.3,0-0.6-0.1-0.9-0.3c-0.9-0.5-1.2-1.7-0.7-2.6l7.7-13.3
			c0.5-0.9,1.7-1.2,2.6-0.7c0.9,0.5,1.2,1.7,0.7,2.6L67.5,33C67.1,33.6,66.5,34,65.8,34z"/>
	</g>
	<g id="XMLID_1589_">
		<path id="XMLID_1778_" class="st0" d="M77.5,45.5c-0.7,0-1.3-0.3-1.6-1c-0.5-0.9-0.2-2.1,0.7-2.6l13.3-7.7
			c0.9-0.5,2.1-0.2,2.6,0.7c0.5,0.9,0.2,2.1-0.7,2.6l-13.3,7.7C78.1,45.4,77.8,45.5,77.5,45.5z"/>
	</g>
	<g id="XMLID_1588_">
		<path id="XMLID_1777_" class="st0" d="M97.1,61.2H81.8c-1,0-1.9-0.9-1.9-1.9c0-1,0.9-1.9,1.9-1.9h15.3c1,0,1.9,0.9,1.9,1.9
			C99,60.4,98.1,61.2,97.1,61.2z"/>
	</g>
</g>
</svg>
