<?xml version="1.0" encoding="utf-8"?>
<!-- Generator: Adobe Illustrator 21.1.0, SVG Export Plug-In . SVG Version: 6.00 Build 0)  -->
<svg version="1.1" id="Layer_1" xmlns="http://www.w3.org/2000/svg" xmlns:xlink="http://www.w3.org/1999/xlink" x="0px" y="0px"
	 viewBox="0 0 100 100" style="enable-background:new 0 0 100 100;" xml:space="preserve">
<style type="text/css">
	.st0{fill:#E30512;}
</style>
<g>
	<path class="st0" d="M94.4,33.7H5.6c-4.5,0-4.7,2.3-4.5,5.2l3.3,46.7c0.2,2.9,0.9,5.2,5.4,5.2h80.7c4.6,0,5.1-2.3,5.4-5.2l3.1-47.3
		C99.2,35.5,98.9,33.7,94.4,33.7z"/>
	<g>
		<path class="st0" d="M93.4,21.2c-0.1-3.2-1.1-3.9-3.9-3.9c0,0-31,0-36.5,0c-5.6,0-6.2,0.1-10.4-4.4c-3.5-3.8-2.1-3.7-9.3-3.7
			c-5.8,0-19.2,0-19.2,0c-4.4,0-6-0.4-6.4,4.2C7.2,17.7,6.3,28,6.2,29.6h87.6L93.4,21.2z"/>
	</g>
</g>
</svg>
