<?xml version="1.0" encoding="utf-8"?>
<!-- Generator: Adobe Illustrator 21.1.0, SVG Export Plug-In . SVG Version: 6.00 Build 0)  -->
<svg version="1.1" id="Layer_1" xmlns="http://www.w3.org/2000/svg" xmlns:xlink="http://www.w3.org/1999/xlink" x="0px" y="0px"
	 viewBox="0 0 100 100" style="enable-background:new 0 0 100 100;" xml:space="preserve">
<style type="text/css">
	.st0{fill:#3C3C3B;}
	.st1{fill:none;stroke:#FFFFFF;stroke-width:5.835;stroke-miterlimit:10;}
</style>
<g>
	<g>
		<path class="st0" d="M23.1,23.1H7.5c-0.5,0-0.8-0.4-0.8-0.8v-4.1c0-0.5,0.4-0.8,0.8-0.8h15.6c0.5,0,0.8,0.4,0.8,0.8v4.1
			C23.9,22.7,23.6,23.1,23.1,23.1z"/>
		<path class="st0" d="M93.3,25H71.9l-1.8-7.4C69.6,15.5,67.5,14,65,14H35c-2.5,0-4.6,1.5-5.1,3.6L28.1,25H6.7
			c-3.4,0-6.1,2.4-6.1,5.4v50.3c0,3,2.7,5.4,6.1,5.4h86.6c3.4,0,6.1-2.4,6.1-5.4V30.4C99.4,27.4,96.7,25,93.3,25z M50,82.5
			c-15,0-27.2-12.2-27.2-27.2S35,28.1,50,28.1c15,0,27.2,12.2,27.2,27.2S65,82.5,50,82.5z"/>
		<path class="st0" d="M50,73.9c-10.3,0-18.6-8.3-18.6-18.6c0-10.3,8.3-18.6,18.6-18.6c10.3,0,18.6,8.3,18.6,18.6
			C68.6,65.6,60.3,73.9,50,73.9z"/>
	</g>
	<g>
		<line class="st1" x1="49.9" y1="43.8" x2="49.9" y2="66.2"/>
		<line class="st1" x1="61.1" y1="55" x2="38.7" y2="55"/>
	</g>
</g>
</svg>
