<?xml version="1.0" encoding="utf-8"?>
<!-- Generator: Adobe Illustrator 21.1.0, SVG Export Plug-In . SVG Version: 6.00 Build 0)  -->
<svg version="1.1" id="Capa_1" xmlns="http://www.w3.org/2000/svg" xmlns:xlink="http://www.w3.org/1999/xlink" x="0px" y="0px"
	 viewBox="0 0 100 100" style="enable-background:new 0 0 100 100;" xml:space="preserve">
<style type="text/css">
	.st0{stroke:#000000;stroke-width:3.0381;stroke-linecap:round;stroke-miterlimit:10;}
</style>
<g>
	<g>
		<path class="st0" d="M50,6.3c24.3,0,43.7,19.8,43.7,43.7c0,24.3-19.8,43.7-43.7,43.7S6.3,74.3,6.3,50C6.3,26.1,26.1,6.3,50,6.3
			 M50,2.2C23.7,2.2,2.2,23.7,2.2,50S23.7,97.8,50,97.8S97.8,76.3,97.8,50S76.3,2.2,50,2.2L50,2.2z"/>
	</g>
	<path d="M60.7,78c-2.6,1-4.7,1.8-6.3,2.4c-1.6,0.5-3.4,0.8-5.4,0.8c-3.2,0-5.6-0.8-7.4-2.3C39.9,77.3,39,75.4,39,73
		c0-0.9,0.1-1.9,0.2-2.8c0.1-1,0.3-2.1,0.6-3.3l3.3-11.6c0.3-1.1,0.5-2.2,0.7-3.2c0.2-1,0.3-1.9,0.3-2.7c0-1.5-0.3-2.5-0.9-3.1
		c-0.6-0.6-1.8-0.9-3.5-0.9c-0.8,0-1.7,0.1-2.6,0.4c-0.9,0.3-1.7,0.5-2.3,0.8l0.9-3.6c2.1-0.9,4.2-1.6,6.2-2.2
		c2-0.6,3.8-0.9,5.6-0.9c3.2,0,5.6,0.8,7.3,2.3c1.7,1.5,2.6,3.5,2.6,5.9c0,0.5-0.1,1.4-0.2,2.7c-0.1,1.3-0.3,2.4-0.7,3.5l-3.3,11.5
		c-0.3,0.9-0.5,2-0.7,3.2c-0.2,1.2-0.3,2.1-0.3,2.7c0,1.5,0.3,2.6,1,3.1c0.7,0.6,1.9,0.8,3.6,0.8c0.8,0,1.7-0.1,2.7-0.4
		c1-0.3,1.7-0.5,2.2-0.7L60.7,78z"/>
	<path d="M60.2,31.3c-1.5,1.4-3.4,2.1-5.5,2.1c-2.1,0-4-0.7-5.5-2.1c-1.5-1.4-2.3-3.1-2.3-5.1c0-2,0.8-3.7,2.3-5.2
		c1.5-1.4,3.4-2.1,5.5-2.1c2.1,0,4,0.7,5.5,2.1c1.5,1.4,2.3,3.2,2.3,5.2C62.5,28.1,61.7,29.8,60.2,31.3z"/>
</g>
</svg>
