<?xml version="1.0" encoding="utf-8"?>
<!-- Generator: Adobe Illustrator 21.1.0, SVG Export Plug-In . SVG Version: 6.00 Build 0)  -->
<svg version="1.1" id="Layer_1" xmlns="http://www.w3.org/2000/svg" xmlns:xlink="http://www.w3.org/1999/xlink" x="0px" y="0px"
	 viewBox="0 0 100 100" style="enable-background:new 0 0 100 100;" xml:space="preserve">
<style type="text/css">
	.st0{fill:#FFFFFF;}
	.st1{fill:#3C3C3B;}
</style>
<g>
	<g>
		<path class="st0" d="M99.5,42.8c0,23.2-22.2,42-49.5,42c-2.7,0-5.3-0.2-7.9-0.5C18.5,81.1,0.5,63.7,0.5,42.8
			c0-23.2,22.2-42,49.5-42S99.5,19.6,99.5,42.8z"/>
		<path class="st0" d="M42.1,84.3c0,0,2.8,10.7,18.5,14.9c0,0-7.9-8.3-6.8-14.5L42.1,84.3z"/>
	</g>
	<g>
		<path class="st1" d="M50,59.2c3.8,0,6.8,2.9,6.8,6.7c0,3.8-2.9,6.7-6.8,6.7c-3.7,0-6.7-2.9-6.7-6.7C43.3,62.1,46.3,59.2,50,59.2z
			 M55.8,48c0,4-1.9,5.9-5.9,5.9c-3.8,0-5.6-1.9-5.6-5.9l-2-27.4c0-4.1,3.8-7.6,7.7-7.6c3.9,0,7.8,3.4,7.8,7.6L55.8,48z"/>
	</g>
</g>
</svg>
