<svg id="Layer_1" data-name="Layer 1" xmlns="http://www.w3.org/2000/svg" viewBox="0 0 150 75.79"><defs><style>.cls-1{fill:#13bf00;}</style></defs><title>nooduitgang</title><path class="cls-1" d="M149.37,0H.63A.63.63,0,0,0,0,.63V75.16a.63.63,0,0,0,.63.63H149.37a.63.63,0,0,0,.63-.63V.63A.63.63,0,0,0,149.37,0Zm-.95,74.21H0V1.58H148.42Z"/><path class="cls-1" d="M145.26,4.74H3.16V72.63H145.26ZM43.52,20l.54-1.1.82-.93,1-.69,1.2-.41,1.26-.1,1.25.22,1.15.51,1,.78.73,1,.43,1.14.1,1.21-.23,1.2-.54,1.1-.82.93-1,.69-1.2.41-1.26.1-1.25-.21-1.15-.52-1-.78-.72-1-.43-1.15-.1-1.21ZM55.19,39.32l-.27.6-.42.5-.56.37L53.3,41l-.67.05H46.12l-.39.34-.51-.11-.48-.22-.39-.33-.3-.41.17-.52V33l-6.3,5.55,6.54,5.76.25.15,1.09.41V57.29l-.13.75-.33.7-.51.61-.64.45-.75.28-.8.1-.8-.1-.75-.28-.64-.45-.51-.61-.33-.7-.14-.75V47.06L33.16,40.8v7.31l-.12.57-.3.57-.45.5-.57.4-.67.28-.54.09H17.62L17,50.38l-.6-.27-.51-.38-.38-.47-.23-.53-.08-.57.08-.57.23-.53.38-.47.51-.38.6-.27.66-.14h9.23v-8.7l8.45-8.67H31.12l-5.47,4.94-.49.07-.5,0-.48-.15L23.74,33l-.36-.36-.29-.42-.19-.48-.08-.52,0-.53.14-.49.24-.46.33-.38,5.76-5.41.42-.2.28,0H41.87l.13.2.29.57.33.53.38.52.42.46.46.42.49.38.52.34.55.28.57.24.59.17.61.13.64.07.44.37.35.5.23.58.06.49v6.35h3.68l.67,0,.64.23.56.37.42.5.27.59.09.65ZM88.67,52.11H79.42l7.64-9.47H61.58V34.74H87.1l-7.65-9.47h9.22l12.9,13.41Zm45.54,6.32H108.95V18.95h25.26Z"/></svg>