<svg id="Layer_1" data-name="Layer 1" xmlns="http://www.w3.org/2000/svg" viewBox="0 0 100 99.77"><defs><style>.cls-1{fill:#dd1919;}.cls-2{fill:#fff;}</style></defs><title>poederblusser</title><rect class="cls-1" width="100" height="99.77"/><path class="cls-2" d="M40.21,80.57h20.3a.13.13,0,0,0,.13-.13V46.94H40.09V80.45A.12.12,0,0,0,40.21,80.57Z" transform="translate(0 -0.23)"/><path class="cls-2" d="M64.47,28.43a4.72,4.72,0,0,0-1.64-1.06L54.1,24.43V23.6l9-2.1a1.31,1.31,0,0,0,.36-.21,4.33,4.33,0,0,0,.45-1c.07-.28-.12-.69-.32-.65S48.42,21.92,48.22,22a6.35,6.35,0,0,0-.66.54v1.66c-1.6-.08-5.81-.54-8.35,1.36a10.33,10.33,0,0,0-4.45,9.08c.25,3.95,1.31,12.5,1.47,15.06s.14,8.32,0,10.28h2.89V55.75c0-1.27-.25-9-.61-11.62s-.81-4.5-1.06-6.9.06-5.82,1.08-7.42a5.65,5.65,0,0,1,4.09-2.87c1.21-.1,3.46-.08,4.9,0V31.8a2.13,2.13,0,0,1-1.15.82c-.34.08-.69.12-1,.2s-.58.14-.86.22a9.62,9.62,0,0,0-3.18,1.55,4.11,4.11,0,0,0-1.23,2.1l0,0V46H60.64V36.74A2.62,2.62,0,0,0,60,35.12a8.88,8.88,0,0,0-3-1.82,19.47,19.47,0,0,0-2.13-.51c-.7-.16-1.69-.32-1.69-1.25V27.31S64.67,30.2,65,30.37s.58.39.51.11A10.66,10.66,0,0,0,64.47,28.43Z" transform="translate(0 -0.23)"/><path class="cls-2" d="M36.2,61c0,.2,0,.41-.05.61s-.06.58-.09.87l-.11,1.07q-.06.6-.13,1.2L35.67,66l-.14,1.26-.14,1.19-.12,1.06-.1.87-.07.63,0,.26h4.1V61h-3Z" transform="translate(0 -0.23)"/></svg>