<?xml version="1.0" encoding="utf-8"?>
<!-- Generator: Adobe Illustrator 21.1.0, SVG Export Plug-In . SVG Version: 6.00 Build 0)  -->
<svg version="1.1" id="Layer_1" xmlns="http://www.w3.org/2000/svg" xmlns:xlink="http://www.w3.org/1999/xlink" x="0px" y="0px"
	 viewBox="0 0 100 100" style="enable-background:new 0 0 100 100;" xml:space="preserve">
<style type="text/css">
	.st0{fill:#E30512;}
	.st1{fill:#FFFFFF;}
</style>
<g>
	<g>
		<path class="st0" d="M60.8,76.5H39.2c-1.7,0-3,1.4-3,3c0,1.7,1.4,3,3,3h21.6c1.7,0,3-1.4,3-3C63.9,77.9,62.5,76.5,60.8,76.5z"/>
		<path class="st0" d="M44.4,94.2c0.4,2.7,2.7,4.8,5.6,4.8c2.8,0,5.2-2.1,5.6-4.8c2.9-0.2,5.3-2.1,6.3-4.7c0.4-1.2-0.5-2.4-1.7-2.4
			H39.9c-1.2,0-2.1,1.2-1.7,2.4C39.1,92.1,41.5,94,44.4,94.2z"/>
		<path class="st0" d="M79.2,30.2c0-17.2-14.9-31-32.5-29.1C33.3,2.6,22.5,13.4,21,26.7c-1,8.2,1.5,15.8,6,21.6
			c3.4,4.4,6.7,9.1,9.5,13.9v6.3c0,1.9,1.5,3.4,3.4,3.4H60c1.9,0,3.4-1.5,3.4-3.4v-6.1c2.8-4.6,6.4-10,9.7-14.1
			C76.9,43.3,79.2,37,79.2,30.2z"/>
	</g>
	<path class="st1" d="M48.2,72.5V46.9h3.6v25.6h1.8V46.9h1.8c2,0,3.6-1.6,3.6-3.6s-1.6-3.6-3.6-3.6s-3.6,1.6-3.6,3.6v1.8h-3.6v-1.8
		c0-2-1.6-3.6-3.6-3.6S41,41.3,41,43.3s1.6,3.6,3.6,3.6h1.8v25.6H48.2z M53.6,43.3c0-1,0.8-1.8,1.8-1.8s1.8,0.8,1.8,1.8
		s-0.8,1.8-1.8,1.8h-1.8V43.3z M46.4,45.1h-1.8c-1,0-1.8-0.8-1.8-1.8s0.8-1.8,1.8-1.8s1.8,0.8,1.8,1.8V45.1z"/>
</g>
</svg>
